<svg xmlns="http://www.w3.org/2000/svg" version="1.1" xmlns:xlink="http://www.w3.org/1999/xlink" xmlns:svgjs="http://svgjs.dev/svgjs" width="1500" height="1500" viewBox="0 0 1500 1500"><rect width="1500" height="1500" fill="#ffffff"></rect><g transform="matrix(0.6666666666666666,0,0,0.6666666666666666,249.39393939393938,589.6980316538488)"><svg viewBox="0 0 396 127" data-background-color="#ffffff" preserveAspectRatio="xMidYMid meet" height="481" width="1500" xmlns="http://www.w3.org/2000/svg" xmlns:xlink="http://www.w3.org/1999/xlink"><g id="tight-bounds" transform="matrix(1,0,0,1,0.2400000000000091,-0.012422099913095508)"><svg viewBox="0 0 395.52 127.0248441998262" height="127.0248441998262" width="395.52"><g><svg viewBox="0 0 397.4975999999999 127.65996842082532" height="127.0248441998262" width="395.52"><g><rect width="397.4975999999999" height="3.9100562239922043" x="0" y="70.15630664652862" fill="#000000" opacity="1" stroke-width="0" stroke="transparent" fill-opacity="1" class="rect-qz-0" data-fill-palette-color="secondary" rx="1%" id="qz-0" data-palette-color="#1c4b82"></rect></g><g transform="matrix(1,0,0,1,0.9887999999999693,84.30211214798732)"><svg viewBox="0 0 395.52 43.357856272838" height="43.357856272838" width="395.52"><g id="textblocktransform"><svg viewBox="0 0 395.52 43.357856272838" height="43.357856272838" width="395.52" id="textblock"><g><svg viewBox="0 0 395.52 43.357856272838" height="43.357856272838" width="395.52"><g transform="matrix(1,0,0,1,0,0)"><svg width="395.52" viewBox="8.9 -31.5 246.28 27" height="43.357856272838" data-palette-color="#1c4b82"><path d="M9.4-5L25.75-5 25.75-4.5 8.9-4.5 8.9-31.5 25.75-31.5 25.75-31 9.4-31 9.4-18.45 21.7-18.45 21.7-17.95 9.4-17.95 9.4-5ZM45.8-31.5L56.9-31.5 56.9-31 45.8-31Q43.7-31 42.45-29.85 41.2-28.7 41.2-26.95L41.2-26.95 41.2-22.85Q41.2-21.1 41.9-20.4 42.6-19.7 43.75-19.5L43.75-19.5 54.3-17.35Q55.8-17.05 56.77-16.05 57.75-15.05 57.75-12.45L57.75-12.45 57.75-9.55Q57.75-7.35 56.25-5.93 54.75-4.5 52.2-4.5L52.2-4.5 39.75-4.5 39.75-5 52.2-5Q54.5-5 55.87-6.28 57.25-7.55 57.25-9.55L57.25-9.55 57.25-12.45Q57.25-14.8 56.42-15.68 55.6-16.55 54.2-16.85L54.2-16.85 43.65-19Q42.35-19.25 41.52-20.03 40.7-20.8 40.7-22.85L40.7-22.85 40.7-26.95Q40.7-28.95 42.1-30.23 43.5-31.5 45.8-31.5L45.8-31.5ZM81.35-4.5L80.85-4.5 80.85-31 70.6-31 70.6-31.5 91.6-31.5 91.6-31 81.35-31 81.35-4.5ZM120.54-5L120.54-4.5 104.64-4.5 104.64-5 112.39-5 112.39-31 104.64-31 104.64-31.5 120.54-31.5 120.54-31 112.89-31 112.89-5 120.54-5ZM137.14-4.5L136.64-4.5 136.64-31.5 152.59-31.5 152.59-31 137.14-31 137.14-16.7 148.54-16.7 148.54-16.2 137.14-16.2 137.14-4.5ZM178.49-14.35L178.49-14.35 168.19-14.35 168.19-4.5 167.69-4.5 167.69-31.5 178.49-31.5Q180.84-31.5 182.31-30.98 183.79-30.45 184.59-29.55 185.39-28.65 185.69-27.4 185.99-26.15 185.99-24.7L185.99-24.7 185.99-21Q185.99-19.55 185.69-18.32 185.39-17.1 184.59-16.23 183.79-15.35 182.31-14.85 180.84-14.35 178.49-14.35ZM168.19-31L168.19-14.85 178.49-14.85Q180.69-14.85 182.06-15.3 183.44-15.75 184.19-16.57 184.94-17.4 185.21-18.53 185.49-19.65 185.49-21L185.49-21 185.49-24.7Q185.49-26.05 185.21-27.2 184.94-28.35 184.19-29.2 183.44-30.05 182.06-30.53 180.69-31 178.49-31L178.49-31 168.19-31ZM200.74-15.15L200.74-15.15 200.74-13.6 220.24-13.6 220.24-15.15Q220.24-16.5 220.01-17.65 219.79-18.8 219.44-19.8L219.44-19.8 215.99-27.95Q215.44-29.25 214.84-30.13 214.24-31 212.84-31L212.84-31 207.94-31Q206.44-31 205.84-30.13 205.24-29.25 204.74-28L204.74-28 201.54-19.8Q201.19-18.8 200.96-17.65 200.74-16.5 200.74-15.15ZM220.74-4.5L220.24-4.5 220.24-13.1 200.74-13.1 200.74-4.5 200.24-4.5 200.24-15.15Q200.24-16.55 200.46-17.73 200.69-18.9 201.09-20L201.09-20 204.29-28.2Q204.84-29.6 205.54-30.55 206.24-31.5 207.94-31.5L207.94-31.5 212.84-31.5Q214.49-31.5 215.16-30.55 215.84-29.6 216.44-28.15L216.44-28.15 219.89-20Q220.29-18.9 220.51-17.73 220.74-16.55 220.74-15.15L220.74-15.15 220.74-4.5ZM245.73-13.05L245.73-13.05 245.38-13.05 245.38-4.5 244.88-4.5 244.88-13.05 244.38-13.05Q243.28-13.05 242.41-13.55 241.53-14.05 240.73-15.15L240.73-15.15 235.88-21.9Q235.33-22.65 235.23-23.65 235.13-24.65 235.13-25.75L235.13-25.75 235.13-31.5 235.63-31.5 235.63-25.75Q235.63-24.7 235.73-23.78 235.83-22.85 236.33-22.1L236.33-22.1 241.18-15.35Q241.83-14.35 242.68-13.95 243.53-13.55 244.38-13.55L244.38-13.55 245.73-13.55Q246.68-13.55 247.46-13.98 248.23-14.4 248.98-15.35L248.98-15.35 253.98-22.1Q254.48-22.75 254.58-23.73 254.68-24.7 254.68-25.75L254.68-25.75 254.68-31.5 255.18-31.5 255.18-25.75Q255.18-24.65 255.11-23.68 255.03-22.7 254.43-21.9L254.43-21.9 249.43-15.15Q248.63-14.05 247.76-13.55 246.88-13.05 245.73-13.05Z" opacity="1" transform="matrix(1,0,0,1,0,0)" fill="#000000" class="wordmark-text-0" data-fill-palette-color="primary" id="text-0"></path></svg></g></svg></g></svg></g></svg></g><g transform="matrix(1,0,0,1,156.11984569623536,0)"><svg viewBox="0 0 85.2579086075292 59.92055736906212" height="59.92055736906212" width="85.2579086075292"><g><svg version="1.0" xmlns="http://www.w3.org/2000/svg" xmlns:xlink="http://www.w3.org/1999/xlink" x="8" y="0" viewBox="0 0 100 86.518" enable-background="new 0 0 100 86.52" xml:space="preserve" width="69.2579086075292" height="59.92055736906212" class="icon-icon-0" data-fill-palette-color="accent" id="icon-0"><path d="M100 36.044v-9.522h-6.289L50 0 6.287 26.521H0v9.522h2.858v40.951H0v9.524h100v-9.524h-2.857V36.044H100zM50 11.138l25.354 15.384H24.646L50 11.138zM30.953 76.995H12.381V36.044h18.572V76.995zM59.523 76.995H40.477V36.044h19.046V76.995zM87.619 76.995H69.047V36.044h18.572V76.995z" fill="#000000" data-fill-palette-color="accent"></path></svg></g></svg></g><g><rect width="79.58672569623539" height="3.9100562239922043" y="55.01050114506991" x="241.37775430376456" fill="#000000" data-fill-palette-color="secondary"></rect><rect width="79.58672569623539" height="3.9100562239922043" y="55.01050114506991" x="76.53311999999997" fill="#000000" data-fill-palette-color="secondary"></rect></g></svg></g><defs></defs></svg><rect width="395.52" height="127.0248441998262" fill="none" stroke="none" visibility="hidden"></rect></g></svg></g></svg>